<?xml version="1.0" encoding="UTF-8" standalone="no"?>
<!-- Created with Inkscape (http://www.inkscape.org/) -->

<svg
   viewBox="0 0 60 60"
   version="1.1"
   id="svg1"
   xml:space="preserve"
   inkscape:version="1.4.2 (f4327f4, 2025-05-13)"
   sodipodi:docname="wezo-logo-red.svg"
   xmlns:inkscape="http://www.inkscape.org/namespaces/inkscape"
   xmlns:sodipodi="http://sodipodi.sourceforge.net/DTD/sodipodi-0.dtd"
   xmlns="http://www.w3.org/2000/svg"
   xmlns:svg="http://www.w3.org/2000/svg"><sodipodi:namedview
     id="namedview1"
     pagecolor="#ffffff"
     bordercolor="#000000"
     borderopacity="0.25"
     inkscape:showpageshadow="2"
     inkscape:pageopacity="0.0"
     inkscape:pagecheckerboard="0"
     inkscape:deskcolor="#d1d1d1"
     inkscape:document-units="mm"
     inkscape:zoom="0.71891835"
     inkscape:cx="109.8873"
     inkscape:cy="256.63554"
     inkscape:window-width="1920"
     inkscape:window-height="1009"
     inkscape:window-x="-8"
     inkscape:window-y="-8"
     inkscape:window-maximized="1"
     inkscape:current-layer="layer1" /><defs
     id="defs1" /><g
     inkscape:label="Layer 1"
     inkscape:groupmode="layer"
     id="layer1"
     transform="translate(-75.82766,-81.334572)"><rect
       style="fill:#d52122;stroke-width:0.309707;fill-opacity:1"
       id="rect1"
       width="60"
       height="60"
       x="75.82766"
       y="81.334572" /><path
       style="fill:#ffffff;stroke-width:0.3098"
       d="m 82.373162,101.22291 c 0,0 1.613052,-7.169126 7.706815,-6.54183 6.631435,0.896147 3.943023,12.99406 3.943023,12.99406 0,0 7.6172,-15.234421 15.50324,-14.338273 7.52758,2.329969 4.39109,11.918683 4.39109,11.918683 0,0 9.94717,-13.890184 14.78633,-10.036781 3.49494,2.688421 -2.32996,8.692561 -5.7353,14.965551 -6.273,12.99406 -7.16913,15.50326 -13.71096,14.60712 -6.04702,-2.1212 -5.0184,-12.27713 -5.0184,-12.27713 0,0 -5.466454,17.29552 -12.7252,16.84745 -12.197525,0.26651 -9.499097,-25.62964 -9.140638,-28.13885 z"
       id="path1"
       sodipodi:nodetypes="ccccccccccc" /></g></svg>
